<svg width="20" height="20" viewBox="0 0 24 24" fill="none" xmlns="http://www.w3.org/2000/svg">
<mask id="mask0_952_33196" style="mask-type:alpha" maskUnits="userSpaceOnUse" x="0" y="0" width="24" height="24">
<rect width="24" height="24" fill="#D9D9D9"/>
</mask>
<g mask="url(#mask0_952_33196)">
<path d="M17 18.5C18.38 18.5 19.5 17.38 19.5 16C19.5 14.62 18.38 13.5 17 13.5C15.62 13.5 14.5 14.62 14.5 16C14.5 17.38 15.62 18.5 17 18.5ZM16.375 11L12.825 7.45L14.225 6.05L16.35 8.175L20.6 3.925L22 5.35L16.375 11ZM2 17V15H11V17H2ZM2 9V7H11V9H2Z" fill="white"/>
</g>
</svg>
