<svg width="20" height="20" viewBox="0 0 24 24" fill="none" xmlns="http://www.w3.org/2000/svg">
<mask id="mask0_952_33196" style="mask-type:alpha" maskUnits="userSpaceOnUse" x="0" y="0" width="24" height="24">
<rect width="24" height="24" fill="#D9D9D9"/>
</mask>
<g mask="url(#mask0_952_33196)">
<path d="M3.6 20L2.2 18.6L4.8 16L2.2 13.4L3.6 12L6.2 14.6L8.8 12L10.2 13.4L7.6 16L10.2 18.6L8.8 20L6.2 17.4L3.6 20ZM5.625 11L2.075 7.45L3.475 6.05L5.6 8.175L9.85 3.925L11.25 5.35L5.625 11ZM13 17V15H22V17H13ZM13 9V7H22V9H13Z" fill="white"/>
</g>
</svg>
